PathFileType	4	(X/Y/Z)	 2.2Hzlow3min.trc
DataRate	CameraRate	NumFrames	NumMarkers	Units	OrigDataRate	OrigDataStartFrame	OrigNumFrames
200	200	8	35	m	200	751	1000
Frame#	Time	C7			LSH			RSH			MAN			RASI			LASI			HIPR			HIPL			RPSI			LPSI			COX			RTHI1			RTHI2			RTHI3			RTHI4			RSHA1			RSHA2			RSHA3			RSHA4			RHEEL			RMET5			RMET1			RTOE			LTHI1			LTHI2			LTHI3			LTHI4			LSHA1			LSHA2			LSHA3			LSHA4			LHEEL			LMET5			LMET1			LTOE			
		X1	Y1	Z1	X2	Y2	Z2	X3	Y3	Z3	X4	Y4	Z4	X5	Y5	Z5	X6	Y6	Z6	X7	Y7	Z7	X8	Y8	Z8	X9	Y9	Z9	X10	Y10	Z10	X11	Y11	Z11	X12	Y12	Z12	X13	Y13	Z13	X14	Y14	Z14	X15	Y15	Z15	X16	Y16	Z16	X17	Y17	Z17	X18	Y18	Z18	X19	Y19	Z19	X20	Y20	Z20	X21	Y21	Z21	X22	Y22	Z22	X23	Y23	Z23	X24	Y24	Z24	X25	Y25	Z25	X26	Y26	Z26	X27	Y27	Z27	X28	Y28	Z28	X29	Y29	Z29	X30	Y30	Z30	X31	Y31	Z31	X32	Y32	Z32	X33	Y33	Z33	X34	Y34	Z34	X35	Y35	Z35	
751	3.7550	-0.336756	1.435209	-0.556505	-0.281787	1.400332	-0.729571	-0.278128	1.416125	-0.389780	-0.222460	1.392816	-0.560798	-0.182878	1.004905	-0.469210	-0.176053	1.010469	-0.642125	-0.245940	1.057914	-0.419269	-0.229271	1.065740	-0.679105	-0.324142	1.039732	-0.486466	-0.319468	1.046556	-0.601162	-0.328567	1.050290	-0.544563	-0.267751	0.834856	-0.376844	-0.267518	0.773046	-0.371295	-0.195255	0.779655	-0.384421	-0.203923	0.839050	-0.388468	-0.314224	0.391679	-0.333900	-0.330304	0.351723	-0.335394	-0.272465	0.336035	-0.344947	-0.261213	0.374619	-0.347481	-0.407855	0.160780	-0.381472	-0.286128	0.056850	-0.320035	-0.259085	0.051293	-0.388403	-0.240877	0.035363	-0.379722	-0.290274	0.797308	-0.724790	-0.286829	0.737726	-0.726567	-0.215553	0.742948	-0.737400	-0.226487	0.803537	-0.735820	-0.345360	0.368881	-0.753329	-0.356509	0.330033	-0.749924	-0.295354	0.318375	-0.757502	-0.291995	0.361974	-0.759839	-0.405016	0.167855	-0.708262	-0.292800	0.057523	-0.774834	-0.257003	0.052876	-0.716436	-0.242798	0.036583	-0.728383	
752	3.7600	-0.336705	1.437199	-0.556544	-0.281749	1.402640	-0.729530	-0.278347	1.418224	-0.389909	-0.222407	1.394965	-0.560827	-0.182830	1.006737	-0.469208	-0.175816	1.012233	-0.641990	-0.245714	1.059991	-0.419290	-0.228796	1.067711	-0.679045	-0.323861	1.042066	-0.486478	-0.319134	1.048786	-0.601209	-0.328262	1.052593	-0.544620	-0.268214	0.836664	-0.376892	-0.268004	0.774849	-0.371386	-0.195699	0.781470	-0.384219	-0.204338	0.840865	-0.388264	-0.313942	0.393331	-0.334001	-0.329832	0.353278	-0.335508	-0.271861	0.337887	-0.345074	-0.260857	0.376510	-0.347540	-0.406455	0.162050	-0.382151	-0.284876	0.058670	-0.319744	-0.257309	0.053005	-0.387610	-0.239198	0.037045	-0.378560	-0.290423	0.799269	-0.724862	-0.287115	0.739652	-0.726576	-0.215840	0.744690	-0.737532	-0.226638	0.805337	-0.735974	-0.345135	0.370364	-0.753333	-0.356153	0.331486	-0.750017	-0.294962	0.320073	-0.757545	-0.291761	0.363677	-0.759874	-0.404056	0.168976	-0.708217	-0.291371	0.059594	-0.775277	-0.255419	0.054907	-0.717128	-0.241175	0.038630	-0.729209	
753	3.7650	-0.336627	1.438959	-0.556584	-0.281694	1.404681	-0.729498	-0.278530	1.420057	-0.389999	-0.222334	1.396836	-0.560851	-0.182821	1.008327	-0.469205	-0.175632	1.013758	-0.641882	-0.245572	1.061794	-0.419308	-0.228425	1.069407	-0.678997	-0.323652	1.044105	-0.486496	-0.318872	1.050730	-0.601252	-0.328017	1.054607	-0.544680	-0.268615	0.838198	-0.376914	-0.268395	0.776383	-0.371432	-0.196054	0.783044	-0.384081	-0.204711	0.842440	-0.388115	-0.313630	0.394786	-0.334127	-0.329360	0.354688	-0.335634	-0.271265	0.339498	-0.345282	-0.260493	0.378158	-0.347663	-0.405226	0.163068	-0.382916	-0.283580	0.060530	-0.319427	-0.255493	0.054764	-0.386844	-0.237411	0.038862	-0.377460	-0.290537	0.800947	-0.724955	-0.287341	0.741314	-0.726627	-0.216061	0.746201	-0.737643	-0.226752	0.806888	-0.736106	-0.344925	0.371690	-0.753244	-0.355871	0.332827	-0.750020	-0.294649	0.321568	-0.757538	-0.291564	0.365183	-0.759865	-0.403281	0.169857	-0.708160	-0.289917	0.061635	-0.775718	-0.253807	0.056971	-0.717715	-0.239456	0.040766	-0.729890	
754	3.7700	-0.336522	1.440483	-0.556619	-0.281621	1.406453	-0.729477	-0.278666	1.421601	-0.390068	-0.222242	1.398436	-0.560870	-0.182852	1.009687	-0.469202	-0.175499	1.015045	-0.641803	-0.245481	1.063346	-0.419339	-0.228154	1.070833	-0.678961	-0.323505	1.045852	-0.486515	-0.318677	1.052385	-0.601293	-0.327828	1.056327	-0.544744	-0.268954	0.839489	-0.376903	-0.268693	0.777672	-0.371430	-0.196322	0.784389	-0.384003	-0.205037	0.843794	-0.388022	-0.313311	0.396045	-0.334279	-0.328917	0.355881	-0.335842	-0.270715	0.340880	-0.345538	-0.260132	0.379592	-0.347808	-0.404168	0.163848	-0.383726	-0.282222	0.062408	-0.319131	-0.253648	0.056535	-0.386158	-0.235536	0.040769	-0.376489	-0.290612	0.802337	-0.725063	-0.287510	0.742712	-0.726737	-0.216220	0.747494	-0.737739	-0.226827	0.808184	-0.736205	-0.344740	0.372846	-0.753054	-0.355670	0.334054	-0.749939	-0.294422	0.322882	-0.757501	-0.291413	0.366500	-0.759824	-0.402654	0.170508	-0.708106	-0.288445	0.063593	-0.776137	-0.252204	0.059008	-0.718201	-0.237691	0.042918	-0.730441	
755	3.7750	-0.336392	1.441773	-0.556652	-0.281526	1.407958	-0.729467	-0.278754	1.422852	-0.390118	-0.222128	1.399769	-0.560886	-0.182922	1.010818	-0.469197	-0.175416	1.016097	-0.641746	-0.245444	1.064641	-0.419376	-0.227969	1.071990	-0.678933	-0.323403	1.047333	-0.486557	-0.318545	1.053758	-0.601337	-0.327698	1.057754	-0.544809	-0.269224	0.840551	-0.376858	-0.268895	0.778744	-0.371382	-0.196514	0.785537	-0.383977	-0.205315	0.844935	-0.387981	-0.313005	0.397105	-0.334467	-0.328531	0.356915	-0.336101	-0.270213	0.342037	-0.345828	-0.259786	0.380801	-0.347959	-0.403254	0.164394	-0.384528	-0.280815	0.064240	-0.318888	-0.251805	0.058280	-0.385605	-0.233616	0.042708	-0.375698	-0.290643	0.803454	-0.725176	-0.287607	0.743842	-0.726876	-0.216304	0.748563	-0.737800	-0.226852	0.809235	-0.736266	-0.344591	0.373859	-0.752816	-0.355538	0.335134	-0.749764	-0.294255	0.324009	-0.757438	-0.291303	0.367624	-0.759758	-0.402141	0.170949	-0.708056	-0.286988	0.065416	-0.776518	-0.250639	0.060945	-0.718600	-0.235934	0.044994	-0.730881	
756	3.7800	-0.336235	1.442829	-0.556685	-0.281408	1.409193	-0.729468	-0.278790	1.423805	-0.390173	-0.221998	1.400834	-0.560896	-0.183030	1.011724	-0.469190	-0.175382	1.016915	-0.641706	-0.245448	1.065677	-0.419423	-0.227858	1.072885	-0.678910	-0.323365	1.048508	-0.486605	-0.318471	1.054849	-0.601382	-0.327626	1.058890	-0.544873	-0.269421	0.841401	-0.376785	-0.268995	0.779601	-0.371292	-0.196622	0.786488	-0.384010	-0.205532	0.845889	-0.387993	-0.312730	0.397961	-0.334701	-0.328183	0.357774	-0.336366	-0.269765	0.342978	-0.346137	-0.259462	0.381790	-0.348093	-0.402462	0.164682	-0.385261	-0.279394	0.065951	-0.318733	-0.249977	0.059977	-0.385213	-0.231673	0.044628	-0.375118	-0.290627	0.804301	-0.725291	-0.287629	0.744711	-0.727037	-0.216311	0.749405	-0.737824	-0.226830	0.810049	-0.736287	-0.344463	0.374722	-0.752547	-0.355443	0.336033	-0.749551	-0.294129	0.324951	-0.757356	-0.291212	0.368562	-0.759665	-0.401712	0.171195	-0.708016	-0.285580	0.067056	-0.776843	-0.249139	0.062721	-0.718926	-0.234232	0.046921	-0.731242	
757	3.7850	-0.336057	1.443653	-0.556717	-0.281264	1.410155	-0.729481	-0.278778	1.424473	-0.390214	-0.221854	1.401639	-0.560901	-0.183173	1.012408	-0.469181	-0.175392	1.017504	-0.641682	-0.245496	1.066458	-0.419475	-0.227809	1.073522	-0.678890	-0.323380	1.049393	-0.486665	-0.318454	1.055652	-0.601433	-0.327612	1.059741	-0.544933	-0.269539	0.842048	-0.376680	-0.268993	0.780260	-0.371165	-0.196651	0.787255	-0.384091	-0.205689	0.846649	-0.388051	-0.312499	0.398624	-0.334984	-0.327896	0.358397	-0.336681	-0.269354	0.343706	-0.346462	-0.259164	0.382573	-0.348211	-0.401768	0.164739	-0.385900	-0.277990	0.067474	-0.318694	-0.248200	0.061587	-0.384993	-0.229752	0.046476	-0.374762	-0.290554	0.804885	-0.725402	-0.287576	0.745317	-0.727217	-0.216237	0.750033	-0.737808	-0.226753	0.810613	-0.736266	-0.344338	0.375409	-0.752270	-0.355341	0.336770	-0.749305	-0.294009	0.325676	-0.757258	-0.291118	0.369295	-0.759551	-0.401339	0.171275	-0.707980	-0.284261	0.068455	-0.777101	-0.247735	0.064283	-0.719186	-0.232630	0.048648	-0.731534	
758	3.7900	-0.335861	1.444248	-0.556745	-0.281091	1.410847	-0.729507	-0.278716	1.424861	-0.390225	-0.221696	1.402187	-0.560901	-0.183350	1.012876	-0.469169	-0.175442	1.017862	-0.641667	-0.245584	1.066984	-0.419532	-0.227809	1.073912	-0.678874	-0.323450	1.050006	-0.486730	-0.318486	1.056180	-0.601488	-0.327651	1.060306	-0.544991	-0.269575	0.842495	-0.376547	-0.268888	0.780723	-0.371009	-0.196602	0.787835	-0.384218	-0.205780	0.847225	-0.388153	-0.312289	0.399101	-0.335297	-0.327669	0.358790	-0.337098	-0.268999	0.344223	-0.346778	-0.258888	0.383142	-0.348298	-0.401156	0.164592	-0.386471	-0.276623	0.068757	-0.318795	-0.246510	0.063067	-0.384961	-0.227895	0.048203	-0.374647	-0.290426	0.805200	-0.725508	-0.287446	0.745667	-0.727408	-0.216082	0.750441	-0.737751	-0.226619	0.810942	-0.736204	-0.344193	0.375901	-0.752011	-0.355215	0.337289	-0.749077	-0.293868	0.326193	-0.757142	-0.290991	0.369809	-0.759412	-0.401004	0.171201	-0.707926	-0.283061	0.069581	-0.777289	-0.246452	0.065592	-0.719388	-0.231161	0.050126	-0.731759	
